<svg width="19" height="14" viewBox="0 0 19 14" fill="none" xmlns="http://www.w3.org/2000/svg">
<path id="Eye" d="M1.83098 8.92903C2.64016 4.98545 6.02283 2.1834 9.82789 2.1834C13.6318 2.1834 17.0144 4.98545 17.8248 8.92903C17.8569 9.08552 17.9489 9.22266 18.0806 9.31028C18.2124 9.39789 18.373 9.42882 18.5272 9.39624C18.6814 9.36367 18.8165 9.27026 18.9028 9.13658C18.9892 9.00289 19.0196 8.83987 18.9875 8.68339C18.0656 4.19794 14.2096 0.979248 9.82789 0.979248C5.4462 0.979248 1.59013 4.19794 0.668227 8.68339C0.63613 8.83987 0.6666 9.00289 0.752933 9.13658C0.839266 9.27026 0.974392 9.36367 1.12858 9.39624C1.28277 9.42882 1.4434 9.39789 1.57512 9.31028C1.70685 9.22266 1.79888 9.08552 1.83098 8.92903ZM9.81602 4.59169C10.9174 4.59169 11.9736 5.03572 12.7524 5.8261C13.5312 6.61647 13.9687 7.68845 13.9687 8.80621C13.9687 9.92397 13.5312 10.9959 12.7524 11.7863C11.9736 12.5767 10.9174 13.0207 9.81602 13.0207C8.71466 13.0207 7.6584 12.5767 6.87962 11.7863C6.10084 10.9959 5.66333 9.92397 5.66333 8.80621C5.66333 7.68845 6.10084 6.61647 6.87962 5.8261C7.6584 5.03572 8.71466 4.59169 9.81602 4.59169Z" fill="#000102"/>
</svg>
